PathFileType	4	(X/Y/Z)	C:/Users/opensim2020/Desktop/walking_exp_matlab/subject06_walking15_straight_02.trc	
DataRate	CameraRate	NumFrames	NumMarkers	Units	OrigDataRate	OrigDataStartFrame	OrigNumFrames	
100.00	100.00	6	47	mm	100.00	1601	218	
Frame#	Time	LFHD			RFHD			LBHD			RBHD			C7			T10			CLAV			STRN			RBAK			LSHO			LUPA			LELB			LFRM			LWRA			LWRB			LFIN			RSHO			RUPA			RELB			RFRM			RWRA			RWRB			RFIN			LASI			RASI			LPSI			RPSI			LTHI			LKNE			LTIB			LANK			LHEE			LTOE			RTHI			RKNE			RTIB			RANK			RHEE			RTOE			*39			*40			*41			*42			*43			*44			*45			*46			
		X1	Y1	Z1	X2	Y2	Z2	X3	Y3	Z3	X4	Y4	Z4	X5	Y5	Z5	X6	Y6	Z6	X7	Y7	Z7	X8	Y8	Z8	X9	Y9	Z9	X10	Y10	Z10	X11	Y11	Z11	X12	Y12	Z12	X13	Y13	Z13	X14	Y14	Z14	X15	Y15	Z15	X16	Y16	Z16	X17	Y17	Z17	X18	Y18	Z18	X19	Y19	Z19	X20	Y20	Z20	X21	Y21	Z21	X22	Y22	Z22	X23	Y23	Z23	X24	Y24	Z24	X25	Y25	Z25	X26	Y26	Z26	X27	Y27	Z27	X28	Y28	Z28	X29	Y29	Z29	X30	Y30	Z30	X31	Y31	Z31	X32	Y32	Z32	X33	Y33	Z33	X34	Y34	Z34	X35	Y35	Z35	X36	Y36	Z36	X37	Y37	Z37	X38	Y38	Z38	X39	Y39	Z39	X40	Y40	Z40	X41	Y41	Z41	X42	Y42	Z42	X43	Y43	Z43	X44	Y44	Z44	X45	Y45	Z45	X46	Y46	Z46	X47	Y47	Z47	

110	1.090	-903.82495	245.94534	1659.48291	-1036.24475	241.05188	1653.50708	-910.47003	377.16953	1600.81018	-1039.48999	370.65292	1599.97546	-966.56757	370.86588	1446.03381	-977.14453	405.89398	1118.36682	-971.21509	259.36627	1370.59424	-965.53687	219.79199	1195.83813	-1041.40308	444.79688	1277.31287	-808.95575	305.71564	1404.34595	-728.24744	261.72351	1210.97778	-709.84656	229.03893	1103.13525	-691.80469	132.55812	987.40424	-738.40271	22.08610	926.30316	-704.05518	68.95361	886.09332	-705.00031	-10.33231	842.68524	-1130.99304	310.46082	1402.21570	-1217.33569	379.67502	1213.00781	-1227.81897	389.74304	1089.86890	-1243.70020	398.59583	969.42120	-1208.79358	372.37201	820.07904	-1253.09912	422.70950	833.45660	-1253.10413	404.27560	750.88062	-869.95135	230.28079	955.64240	-1091.38733	228.09296	966.70715	-902.31689	388.32355	986.10883	-1070.34094	380.40930	986.41107	-829.66705	333.31210	644.27295	-854.54547	361.70004	481.61597	-874.35107	436.96899	234.94234	-929.74982	461.01154	66.58758	-976.95837	500.36761	55.96672	-926.97284	316.83893	33.49229	-1152.45361	197.70470	642.58203	-1123.51208	147.67487	527.73053	-1130.84106	162.81458	266.78171	-1095.69446	158.96764	78.83593	-1051.73303	196.46165	50.60312	-1089.21729	5.83332	47.60872	-965.57935	345.09006	1697.13245																					 
111	1.100	-904.36768	235.69629	1657.96021	-1036.77722	231.04178	1651.84241	-910.76965	366.99704	1599.44714	-1039.77173	360.63754	1598.45410	-966.79230	360.89532	1444.56506	-977.60327	395.93738	1116.86353	-971.43329	249.46301	1369.03320	-965.56122	210.05156	1194.18018	-1041.40784	434.95242	1275.91113	-809.18427	295.89807	1402.93250	-728.14825	251.17958	1210.00989	-709.55505	217.67186	1102.43884	-692.12939	118.06797	989.40594	-738.70929	5.44327	933.05750	-705.48761	50.95474	890.33710	-706.77679	-29.84368	850.04901	-1131.22522	300.51077	1400.72070	-1217.31580	371.57535	1212.30566	-1227.69824	382.88422	1089.18689	-1243.50366	392.57556	968.78101	-1209.51709	367.02719	819.80908	-1252.59277	417.79941	832.93640	-1252.83850	399.78763	750.29718	-869.70966	220.70901	953.94073	-1091.02209	217.18716	965.10333	-902.54865	378.55188	984.76807	-1070.60352	369.97757	985.01233	-829.53833	326.15433	643.34656	-854.61639	355.85431	480.86142	-874.32678	434.56693	235.09848	-929.86749	460.63199	66.88914	-977.16644	500.12128	56.50424	-926.91608	316.77087	33.46049	-1153.37463	190.57521	639.80121	-1124.17163	139.98935	524.74298	-1131.32849	143.37404	264.34219	-1095.53064	129.31917	76.87225	-1051.68066	165.86819	47.29148	-1087.95801	-24.94427	51.74480	-966.00818	334.88025	1695.62646																					 
112	1.110	-904.98566	225.43015	1656.40149	-1037.45276	220.94301	1650.12195	-911.11810	356.83496	1598.02209	-1040.05762	350.56357	1596.79163	-967.10950	350.82889	1443.02637	-978.06348	385.98422	1115.25549	-971.71295	239.32458	1367.39453	-965.67792	200.14868	1192.49719	-1041.56824	424.94925	1274.33362	-809.48822	286.04227	1401.38196	-728.13696	240.76402	1208.85010	-709.37811	206.49883	1101.57397	-692.49780	103.76102	991.39221	-739.31494	-10.56892	939.63068	-707.33728	33.48994	894.51093	-709.07959	-48.93065	857.43005	-1131.51306	290.53574	1399.14526	-1217.28943	363.24414	1211.44238	-1227.64795	375.60156	1088.41492	-1243.37292	386.29016	968.03149	-1208.96606	361.20786	818.51691	-1252.14331	412.46201	832.25385	-1252.53223	394.88373	749.57220	-869.51971	210.88890	952.20355	-1091.02917	207.09851	963.31018	-902.69202	368.69891	983.29041	-1070.86853	359.49405	983.52051	-829.55609	318.94455	642.39923	-854.69171	349.82217	479.95908	-874.48938	431.81381	235.15924	-930.01508	460.19843	67.26307	-977.39044	499.85562	57.08678	-926.84888	316.76193	33.42027	-1154.09192	183.68591	636.78357	-1125.19934	132.29866	521.75507	-1131.60730	124.52854	262.32666	-1095.19092	101.09736	75.88982	-1051.36877	136.32970	45.16631	-1086.84741	-54.12045	56.66142	-966.49335	324.66489	1694.07922																					 
113	1.120	-905.62140	215.09528	1654.79004	-1038.03613	210.86111	1648.37854	-911.35065	346.69217	1596.47424	-1040.45483	340.48569	1595.07056	-967.39227	340.76642	1441.33154	-978.50049	375.71469	1113.54810	-972.10919	229.37128	1365.65735	-965.95654	190.18576	1190.78394	-1041.73438	415.05493	1272.76685	-809.83832	276.10495	1399.72937	-728.23029	230.30342	1207.52319	-709.27838	195.44249	1100.55481	-693.31738	89.92321	993.15155	-740.24078	-26.10531	946.02374	-709.09094	16.39919	899.05969	-711.42053	-67.40213	864.43805	-1131.88623	280.64603	1397.47998	-1217.36072	354.86005	1210.46729	-1227.62012	368.25226	1087.48828	-1243.28027	379.67023	967.15015	-1209.09924	354.99213	817.59930	-1251.73828	406.60135	831.40363	-1252.25623	389.53824	748.72333	-869.41455	201.01476	950.46991	-1090.91150	196.40273	961.54370	-902.93213	358.65619	981.75751	-1071.13538	348.75549	981.92157	-829.26666	311.32074	641.23596	-854.73035	343.47913	479.03287	-874.49274	428.89294	235.21924	-930.22382	459.75720	67.69418	-977.69299	499.54242	57.76913	-926.80634	316.70239	33.40938	-1155.44910	176.27716	634.02026	-1126.50940	124.47841	518.82489	-1131.88379	106.47997	260.73434	-1094.72009	74.24204	75.73404	-1050.80261	108.13731	43.76056	-1085.75220	-81.76678	62.24509	-966.99384	314.52615	1692.50317																					 
114	1.130	-906.26447	204.82153	1653.08289	-1038.71118	200.81535	1646.56470	-911.80005	336.41104	1594.79016	-1040.91162	330.51425	1593.35425	-967.76501	330.66348	1439.62073	-979.01477	365.35950	1111.83618	-972.55670	219.26576	1363.90149	-966.28247	180.01138	1189.01587	-1041.93896	404.93579	1271.00232	-810.24017	266.00861	1398.00891	-728.42090	219.89911	1206.03333	-709.30389	184.53465	1099.35388	-693.86890	76.55354	994.96289	-741.42950	-41.12892	952.21161	-710.49506	-0.36534	903.27234	-713.84235	-85.19523	871.56946	-1132.35437	270.69635	1395.80054	-1217.48291	346.11160	1209.28650	-1227.67346	360.59711	1086.41882	-1243.29443	372.75061	966.11176	-1209.33411	348.40335	816.51575	-1251.49988	400.36346	830.45380	-1252.00562	383.54837	747.69879	-869.30420	191.02321	948.62372	-1090.92639	185.57330	959.74750	-903.22052	348.57626	980.20984	-1071.45374	337.89154	980.28412	-829.27533	303.57379	639.97754	-854.84729	336.76343	477.93588	-874.66339	425.75659	235.19661	-930.39923	459.22205	68.17944	-977.94403	499.08615	58.52447	-926.75049	316.60397	33.32685	-1156.87415	168.84459	631.42560	-1128.21362	116.74784	515.96240	-1131.93994	89.37277	259.44388	-1094.10254	48.88011	76.07926	-1050.00256	81.49968	43.05002	-1084.82727	-107.93393	68.24570	-967.53613	304.26181	1690.66638																					 
115	1.140	-906.95117	194.60950	1651.37622	-1039.41748	190.67741	1644.78784	-912.30817	326.16092	1593.11389	-1041.41711	320.37448	1591.53674	-968.23895	320.56668	1437.84546	-979.32343	354.98486	1109.88318	-973.08600	209.01180	1362.15430	-966.71143	169.83406	1187.21179	-1042.14441	394.86493	1269.22461	-810.70837	255.84564	1396.19287	-728.69171	209.56349	1204.40515	-709.18433	173.32518	1098.15625	-694.62872	63.08477	996.35681	-742.86035	-55.36266	957.85132	-712.71332	-16.41586	907.48871	-716.29437	-102.25264	878.47235	-1132.85071	260.76544	1393.96228	-1217.52417	337.46057	1207.97742	-1227.80420	352.69019	1085.20313	-1243.34607	365.52957	964.95874	-1209.50806	341.34424	815.34283	-1251.34204	393.75183	829.38458	-1251.82593	377.20813	746.53485	-869.24701	180.90161	946.76373	-1090.89014	174.58696	957.84357	-903.56396	338.28046	978.60272	-1071.84583	327.06116	978.69604	-829.27295	295.37830	638.61731	-854.98328	329.79419	476.76376	-874.64227	422.33527	235.17323	-930.53357	458.59052	68.70277	-978.15106	498.63400	59.45166	-926.76111	316.43930	33.29098	-1158.48096	160.38387	629.15588	-1130.07874	108.61632	513.13904	-1132.22119	72.74680	258.37064	-1093.46008	25.13922	76.91257	-1049.14429	56.42874	43.04507	-1084.05212	-132.18279	74.40840	-968.10583	294.07547	1688.92554																					 
